<svg width="123" height="30" viewBox="0 0 123 30" fill="none" xmlns="http://www.w3.org/2000/svg">
<path d="M49.2617 21H52.2266V14.2861C52.2266 13.0615 51.7969 12.041 50.9375 11.2246C50.0781 10.4082 48.9609 10 47.6074 10C47.0811 10 46.5654 10.0859 46.0605 10.2363C45.5664 10.3867 45.1582 10.5586 44.8467 10.7412C44.5459 10.9238 44.2559 11.1279 43.998 11.3643C43.7402 11.6006 43.5684 11.7725 43.4932 11.8691C43.418 11.9658 43.3535 12.041 43.3105 12.0947L44.9541 13.7383L45.2012 13.4805C45.373 13.2871 45.6523 13.1045 46.0498 12.9219C46.458 12.7393 46.8984 12.6426 47.3818 12.6426C47.9727 12.6426 48.4346 12.793 48.7568 13.0723C49.0898 13.3623 49.251 13.7275 49.251 14.1787L45.835 14.791C44.8467 14.9736 44.0625 15.3604 43.4932 15.9404C42.9346 16.5312 42.6445 17.2617 42.6445 18.1426C42.6445 19.002 42.9883 19.7217 43.6543 20.3232C44.3311 20.9248 45.2012 21.2148 46.2754 21.2148C46.834 21.2148 47.3711 21.0967 47.8867 20.8604C48.4023 20.624 48.7461 20.4307 48.8965 20.2803C49.0469 20.1299 49.165 20.0117 49.251 19.9043L49.2617 21ZM47.0488 18.7979C46.1035 18.7979 45.6201 18.4326 45.6201 17.7021C45.6201 17.0254 46.0283 16.6172 46.834 16.4883L49.251 16.0479V16.3809C49.251 17.1436 49.0576 17.7344 48.6602 18.1641C48.2627 18.5938 47.7256 18.7979 47.0488 18.7979ZM59.93 21.2148C61.3265 21.2148 62.5296 20.6777 63.5609 19.5928C64.5921 18.5078 65.1077 17.1758 65.1077 15.6074C65.1077 14.0391 64.5921 12.7178 63.5609 11.6328C62.5296 10.5479 61.3265 10 59.93 10C59.5325 10 59.1566 10.0645 58.7913 10.1719C58.4261 10.2793 58.1253 10.4082 57.8997 10.5479C57.6634 10.6875 57.4486 10.8486 57.2552 11.0205C57.0618 11.1924 56.9329 11.3105 56.8685 11.375C56.804 11.4395 56.7611 11.4932 56.7396 11.5361V10.2148H53.7747V25.6191H56.7396V19.6787L57.0726 20.0762C57.2874 20.334 57.6634 20.5811 58.2005 20.8389C58.7376 21.0967 59.307 21.2148 59.93 21.2148ZM59.3821 12.6426C60.1126 12.6426 60.7357 12.9219 61.2513 13.4805C61.7669 14.0391 62.0247 14.748 62.0247 15.6182C62.0247 16.4775 61.7669 17.1973 61.2513 17.7559C60.7357 18.3145 60.1126 18.5938 59.3821 18.5938C58.6517 18.5938 58.0286 18.3145 57.513 17.7559C56.9974 17.1973 56.7396 16.4775 56.7396 15.6182C56.7396 14.748 56.9974 14.0391 57.513 13.4805C58.0286 12.9219 58.6517 12.6426 59.3821 12.6426ZM72.1452 21.2148C73.5416 21.2148 74.7448 20.6777 75.776 19.5928C76.8073 18.5078 77.3229 17.1758 77.3229 15.6074C77.3229 14.0391 76.8073 12.7178 75.776 11.6328C74.7448 10.5479 73.5416 10 72.1452 10C71.7477 10 71.3717 10.0645 71.0065 10.1719C70.6413 10.2793 70.3405 10.4082 70.1149 10.5479C69.8786 10.6875 69.6637 10.8486 69.4704 11.0205C69.277 11.1924 69.1481 11.3105 69.0836 11.375C69.0192 11.4395 68.9762 11.4932 68.9547 11.5361V10.2148H65.9899V25.6191H68.9547V19.6787L69.2877 20.0762C69.5026 20.334 69.8786 20.5811 70.4157 20.8389C70.9528 21.0967 71.5221 21.2148 72.1452 21.2148ZM71.5973 12.6426C72.3278 12.6426 72.9508 12.9219 73.4664 13.4805C73.9821 14.0391 74.2399 14.748 74.2399 15.6182C74.2399 16.4775 73.9821 17.1973 73.4664 17.7559C72.9508 18.3145 72.3278 18.5938 71.5973 18.5938C70.8668 18.5938 70.2438 18.3145 69.7282 17.7559C69.2125 17.1973 68.9547 16.4775 68.9547 15.6182C68.9547 14.748 69.2125 14.0391 69.7282 13.4805C70.2438 12.9219 70.8668 12.6426 71.5973 12.6426ZM83.1572 10.4404H80.622V8.46387C80.622 7.36816 81.0947 6.80957 82.0507 6.80957C82.5664 6.80957 83.039 6.92773 83.4795 7.14258V5.71387L83.3076 5.63867C83.1787 5.58496 82.9853 5.53125 82.7275 5.47754C82.4697 5.41309 82.2011 5.3916 81.9433 5.3916C81.041 5.3916 80.3427 5.66016 79.8379 6.19727C79.333 6.73438 79.0859 7.48633 79.0859 8.47461V10.4512H77.4316V11.8799H79.0859V21.0107H80.622V11.8799H83.1572V10.4404ZM85.9085 5.5957H84.3723V21H85.9085V5.5957ZM96.4749 15.7256C96.4749 16.8643 96.0882 17.8311 95.3363 18.6152C94.5843 19.3994 93.6712 19.7861 92.6185 19.7861C91.5657 19.7861 90.6527 19.3994 89.9007 18.6045C89.1488 17.8096 88.7728 16.8535 88.7728 15.7148C88.7728 14.5762 89.1488 13.6201 89.9007 12.8359C90.6527 12.0518 91.5657 11.6543 92.6185 11.6543C93.6712 11.6543 94.5843 12.0518 95.3363 12.8359C96.0882 13.6201 96.4749 14.5869 96.4749 15.7256ZM87.2366 15.7256C87.2366 17.2725 87.7523 18.5723 88.805 19.6357C89.8577 20.6885 91.1253 21.2256 92.6292 21.2256C94.1224 21.2256 95.39 20.6885 96.432 19.6357C97.4847 18.5723 98.0003 17.2725 98.0003 15.7256C98.0003 14.1787 97.4847 12.8789 96.432 11.8154C95.39 10.752 94.1224 10.2148 92.6292 10.2148C91.1253 10.2148 89.8577 10.752 88.805 11.8154C87.7523 12.8789 87.2366 14.1787 87.2366 15.7256ZM105.059 10.4404L102.417 18.583L99.6666 10.4404H98.0123L101.643 21H103.083L105.714 12.9648L108.357 21H109.786L113.417 10.4404H111.762L109.012 18.583L106.381 10.4404H105.059ZM120.583 11.6543L120.422 11.4932C120.336 11.4072 120.186 11.2998 119.992 11.1494C119.799 10.999 119.573 10.8594 119.326 10.7197C119.068 10.5801 118.746 10.4619 118.359 10.3652C117.973 10.2686 117.575 10.2148 117.167 10.2148C116.157 10.2148 115.309 10.5156 114.643 11.1064C113.977 11.708 113.644 12.3955 113.644 13.1904C113.644 13.8672 113.837 14.415 114.234 14.8447C114.632 15.2744 115.115 15.5859 115.674 15.7793C116.232 15.9727 116.78 16.1553 117.339 16.3164C117.897 16.4775 118.37 16.6924 118.768 16.9717C119.165 17.251 119.369 17.6055 119.369 18.0459C119.369 18.5508 119.165 18.9697 118.768 19.3027C118.37 19.625 117.801 19.7969 117.06 19.7969C116.737 19.7969 116.415 19.7432 116.103 19.6357C115.781 19.5283 115.523 19.3994 115.33 19.2598C115.126 19.1201 114.933 18.959 114.761 18.7871C114.589 18.6152 114.471 18.4863 114.428 18.4219C114.374 18.3574 114.331 18.3037 114.31 18.2607L113.203 19.3564L113.343 19.5605C113.439 19.6895 113.59 19.8398 113.805 20.0225C114.019 20.2051 114.267 20.3877 114.557 20.5703C114.836 20.7422 115.201 20.9033 115.642 21.0322C116.082 21.1611 116.555 21.2256 117.06 21.2256C118.23 21.2256 119.165 20.9141 119.863 20.3125C120.551 19.7109 120.905 18.9482 120.905 18.0459C120.905 17.3477 120.701 16.7783 120.314 16.3271C119.917 15.876 119.444 15.5537 118.886 15.3604C118.327 15.167 117.769 14.9844 117.21 14.834C116.651 14.6836 116.168 14.4795 115.781 14.2217C115.384 13.9639 115.19 13.6201 115.19 13.2012C115.19 12.793 115.373 12.4277 115.738 12.127C116.103 11.8154 116.576 11.665 117.167 11.665C117.618 11.665 118.048 11.7617 118.456 11.9658C118.853 12.1699 119.111 12.3311 119.219 12.4492C119.326 12.5674 119.412 12.6748 119.477 12.7607L120.583 11.6543Z" fill="#2F3941"/>
<path d="M0.349365 20.1141L16.221 29.6787C16.7037 29.9697 17.2975 29.9697 17.7802 29.6787L33.6506 20.1141C34.1165 19.8332 34.1165 19.1328 33.6506 18.8519L29.701 16.4715L17.6413 23.6236C17.6056 23.645 17.5679 23.6644 17.5302 23.6817C17.1562 23.857 16.7197 23.8376 16.3597 23.6236L4.29999 16.4712L0.349365 18.8519C-0.116455 19.1328 -0.116455 19.8332 0.349365 20.1141Z" fill="#14353C"/>
<path d="M3.32104 14.7305L16.3674 22.4671C16.7642 22.7025 17.2523 22.7025 17.6491 22.4671L30.6945 14.7305C31.0774 14.5032 31.0774 13.9367 30.6945 13.7095L25.6641 10.7262L17.3945 15.6306C17.3677 15.6466 17.3394 15.6612 17.3111 15.6742C17.0305 15.8056 16.7031 15.7911 16.4329 15.6306L8.25775 10.782L3.32104 13.7095C2.93814 13.9367 2.93814 14.5032 3.32104 14.7305Z" fill="#14353C"/>
<path d="M6.64534 8.59976L16.4333 14.4042C16.731 14.5807 17.0971 14.5807 17.3948 14.4042L27.182 8.59976C27.4693 8.4293 27.4693 8.00427 27.182 7.8338L17.3948 2.02941C17.0971 1.85283 16.731 1.85283 16.4333 2.02941L6.64534 7.8338C6.35807 8.00427 6.35807 8.4293 6.64534 8.59976Z" fill="#14353C"/>
</svg>
