<svg xmlns="http://www.w3.org/2000/svg" width="176" height="36" viewBox="0 0 176 36" fill="none"><path d="M18.8278 0.314123C18.1022 -0.104707 17.2083 -0.104708 16.4827 0.314123L1.17284 9.15167C0.447093 9.5706 0 10.3449 0 11.1829V28.8633C0 29.7012 0.447016 30.4754 1.17266 30.8944L9.74016 35.8409C10.5219 36.2922 11.4992 35.728 11.4992 34.8253V32.7674C11.4992 31.9294 11.0521 31.1551 10.3264 30.7362L5.88559 28.1727C5.15986 27.7538 4.71278 26.9795 4.71278 26.1415V13.9044C4.71278 13.0665 5.15978 12.2922 5.88541 11.8733L16.4825 5.75471C17.2082 5.33572 18.1023 5.33572 18.828 5.75471L29.4251 11.8733C30.1507 12.2922 30.5977 13.0665 30.5977 13.9044V26.1417C30.5977 26.9796 30.1507 27.7538 29.4252 28.1728L24.9809 30.7391C24.2553 31.1581 23.8084 31.9323 23.8084 32.7701V34.8256C23.8084 35.7282 24.7855 36.2925 25.5673 35.8412L34.1376 30.8943C34.8634 30.4754 35.3105 29.7011 35.3105 28.8631V11.1829C35.3105 10.3449 34.8634 9.5706 34.1376 9.15167L18.8278 0.314123Z" fill="#2FB6FF"></path><path fill-rule="evenodd" clip-rule="evenodd" d="M18.8214 0.310458C18.0991 -0.103493 17.2114 -0.103486 16.489 0.310481C16.4869 0.311692 16.4848 0.312905 16.4827 0.314123L1.17282 9.15166C1.17063 9.15293 1.16844 9.1542 1.16626 9.15547C0.806244 9.36483 0.515244 9.66184 0.313965 10.0106L5.0227 12.7391C5.22529 12.3853 5.52002 12.0842 5.88539 11.8733L16.4825 5.75471C17.2082 5.33572 18.1023 5.33572 18.8279 5.75471L29.4251 11.8733C29.7719 12.0735 30.055 12.3549 30.2561 12.6856L34.9945 10.0073C34.7933 9.65992 34.503 9.36414 34.1442 9.15545C34.142 9.15419 34.1398 9.15292 34.1376 9.15167L18.8277 0.314123C18.8256 0.312898 18.8235 0.311676 18.8214 0.310458Z" fill="#0057E4"></path><path fill-rule="evenodd" clip-rule="evenodd" d="M8.70605 19.7798C8.70605 20.3874 9.36879 20.7628 9.88987 20.4503L16.8511 16.2763C17.346 15.9795 17.9642 15.9795 18.4592 16.2763L25.4204 20.4503C25.9415 20.7628 26.6042 20.3874 26.6042 19.7798V16.5515C26.6042 16.001 26.3147 15.4911 25.8421 15.2089L18.4566 10.8001C17.9629 10.5054 17.3473 10.5054 16.8537 10.8001L9.46817 15.2089C8.99552 15.4911 8.70605 16.001 8.70605 16.5515V19.7798Z" fill="#74C9FF"></path><path fill-rule="evenodd" clip-rule="evenodd" d="M17.6551 16.0537C17.3768 16.0537 17.0985 16.1279 16.8511 16.2763L9.88987 20.4503C9.36879 20.7628 8.70605 20.3874 8.70605 19.7798V16.5515C8.70605 16.001 8.99552 15.4911 9.46817 15.2089L16.8537 10.8001C17.1005 10.6527 17.3778 10.5791 17.6551 10.5791V16.0537Z" fill="#3E9EFF"></path><path fill-rule="evenodd" clip-rule="evenodd" d="M12.5085 26.841C12.5085 27.4502 13.1744 27.8253 13.6954 27.5096L16.845 25.6013C17.3431 25.2996 17.9675 25.2996 18.4655 25.6013L21.6151 27.5096C22.1361 27.8253 22.802 27.4502 22.802 26.841V23.6168C22.802 23.0681 22.5144 22.5595 22.0441 22.2768L18.461 20.1224C17.9652 19.8243 17.3454 19.8243 16.8496 20.1224L13.2664 22.2768C12.7962 22.5595 12.5085 23.0681 12.5085 23.6168V26.841Z" fill="#74C9FF"></path><path fill-rule="evenodd" clip-rule="evenodd" d="M17.6551 25.375C17.3745 25.375 17.0938 25.4504 16.8448 25.6013L13.6952 27.5096C13.1742 27.8253 12.5083 27.4502 12.5083 26.841V23.6168C12.5083 23.0681 12.7959 22.5595 13.2662 22.2768L16.8493 20.1224C17.0972 19.9733 17.3762 19.8988 17.6551 19.8988V25.375Z" fill="#3E9EFF"></path><path d="M175.65 20.3272C175.65 20.7996 175.618 21.2248 175.555 21.6027H165.989C166.068 22.5475 166.399 23.2876 166.981 23.823C167.564 24.3584 168.28 24.6261 169.131 24.6261C170.359 24.6261 171.233 24.0986 171.753 23.0435H175.319C174.941 24.3033 174.217 25.3425 173.146 26.1614C172.075 26.9645 170.761 27.366 169.202 27.366C167.942 27.366 166.808 27.0904 165.8 26.5393C164.808 25.9724 164.029 25.1772 163.462 24.1537C162.911 23.1301 162.635 21.9491 162.635 20.6106C162.635 19.2564 162.911 18.0675 163.462 17.044C164.013 16.0205 164.785 15.2331 165.777 14.682C166.769 14.1309 167.91 13.8553 169.202 13.8553C170.446 13.8553 171.556 14.123 172.532 14.6584C173.524 15.1938 174.288 15.9575 174.823 16.9495C175.374 17.9258 175.65 19.0517 175.65 20.3272ZM172.225 19.3824C172.209 18.5321 171.902 17.855 171.304 17.3511C170.705 16.8314 169.973 16.5716 169.107 16.5716C168.288 16.5716 167.595 16.8236 167.029 17.3274C166.477 17.8156 166.139 18.5006 166.013 19.3824H172.225Z" fill="black"></path><path d="M146.627 20.5635C146.627 19.2407 146.887 18.0676 147.407 17.0441C147.942 16.0205 148.667 15.2332 149.58 14.6821C150.493 14.1309 151.509 13.8554 152.627 13.8554C153.477 13.8554 154.288 14.0443 155.06 14.4222C155.831 14.7844 156.446 15.2726 156.902 15.8867V9.67459H160.256V27.1535H156.902V25.2166C156.493 25.8623 155.918 26.3819 155.178 26.7756C154.438 27.1692 153.58 27.3661 152.603 27.3661C151.501 27.3661 150.493 27.0826 149.58 26.5158C148.667 25.9489 147.942 25.1537 147.407 24.1301C146.887 23.0908 146.627 21.902 146.627 20.5635ZM156.926 20.6107C156.926 19.8076 156.768 19.1226 156.453 18.5558C156.138 17.9731 155.713 17.5322 155.178 17.233C154.643 16.9181 154.068 16.7606 153.454 16.7606C152.84 16.7606 152.273 16.9102 151.753 17.2094C151.233 17.5086 150.808 17.9495 150.478 18.5321C150.163 19.099 150.005 19.7761 150.005 20.5635C150.005 21.3508 150.163 22.0437 150.478 22.642C150.808 23.2247 151.233 23.6735 151.753 23.9884C152.288 24.3033 152.855 24.4608 153.454 24.4608C154.068 24.4608 154.643 24.3112 155.178 24.012C155.713 23.6971 156.138 23.2562 156.453 22.6893C156.768 22.1067 156.926 21.4138 156.926 20.6107Z" fill="black"></path><path d="M130.619 20.5634C130.619 19.2407 130.879 18.0675 131.399 17.044C131.934 16.0205 132.65 15.2331 133.548 14.682C134.461 14.1309 135.477 13.8553 136.595 13.8553C137.571 13.8553 138.422 14.0521 139.146 14.4458C139.886 14.8395 140.477 15.3355 140.918 15.9339V14.0679H144.248V27.1534H140.918V25.2402C140.492 25.8543 139.902 26.3661 139.146 26.7755C138.406 27.1692 137.548 27.366 136.571 27.366C135.469 27.366 134.461 27.0826 133.548 26.5157C132.65 25.9488 131.934 25.1536 131.399 24.13C130.879 23.0908 130.619 21.9019 130.619 20.5634ZM140.918 20.6106C140.918 19.8076 140.76 19.1226 140.445 18.5557C140.13 17.9731 139.705 17.5322 139.17 17.233C138.634 16.918 138.059 16.7606 137.445 16.7606C136.831 16.7606 136.264 16.9102 135.745 17.2093C135.225 17.5085 134.8 17.9494 134.469 18.5321C134.154 19.099 133.997 19.7761 133.997 20.5634C133.997 21.3507 134.154 22.0436 134.469 22.642C134.8 23.2246 135.225 23.6734 135.745 23.9883C136.28 24.3033 136.847 24.4607 137.445 24.4607C138.059 24.4607 138.634 24.3111 139.17 24.0119C139.705 23.697 140.13 23.2561 140.445 22.6892C140.76 22.1066 140.918 21.4137 140.918 20.6106Z" fill="black"></path><path d="M125.227 16.0994C125.652 15.4065 126.203 14.8632 126.88 14.4696C127.573 14.0759 128.36 13.8791 129.242 13.8791V17.3512H128.368C127.329 17.3512 126.542 17.5953 126.006 18.0835C125.487 18.5716 125.227 19.4219 125.227 20.6344V27.1536H121.92V14.068H125.227V16.0994Z" fill="black"></path><path d="M111.037 13.8553C112.013 13.8553 112.871 14.0521 113.612 14.4458C114.352 14.8237 114.934 15.3197 115.359 15.9339V14.0679H118.69V27.2479C118.69 28.4604 118.446 29.5391 117.958 30.4839C117.469 31.4444 116.737 32.2003 115.761 32.7514C114.785 33.3183 113.604 33.6017 112.218 33.6017C110.36 33.6017 108.832 33.1687 107.636 32.3026C106.455 31.4365 105.785 30.2555 105.628 28.7596H108.911C109.084 29.358 109.454 29.8304 110.021 30.1768C110.604 30.539 111.305 30.7201 112.123 30.7201C113.084 30.7201 113.863 30.4288 114.462 29.8461C115.06 29.2792 115.359 28.4132 115.359 27.2479V25.2166C114.934 25.8307 114.344 26.3425 113.588 26.7519C112.848 27.1613 111.997 27.366 111.037 27.366C109.935 27.366 108.927 27.0826 108.014 26.5157C107.1 25.9488 106.376 25.1536 105.84 24.13C105.321 23.0908 105.061 21.9019 105.061 20.5634C105.061 19.2407 105.321 18.0675 105.84 17.044C106.376 16.0205 107.092 15.2331 107.99 14.682C108.903 14.1309 109.919 13.8553 111.037 13.8553ZM115.359 20.6106C115.359 19.8076 115.202 19.1226 114.887 18.5557C114.572 17.9731 114.147 17.5322 113.612 17.233C113.076 16.918 112.501 16.7606 111.887 16.7606C111.273 16.7606 110.706 16.9102 110.187 17.2093C109.667 17.5085 109.242 17.9494 108.911 18.5321C108.596 19.099 108.439 19.7761 108.439 20.5634C108.439 21.3507 108.596 22.0436 108.911 22.642C109.242 23.2246 109.667 23.6734 110.187 23.9883C110.722 24.3033 111.289 24.4607 111.887 24.4607C112.501 24.4607 113.076 24.3111 113.612 24.0119C114.147 23.697 114.572 23.2561 114.887 22.6892C115.202 22.1066 115.359 21.4137 115.359 20.6106Z" fill="black"></path><path d="M103.498 20.3272C103.498 20.7996 103.467 21.2248 103.404 21.6027H93.8375C93.9162 22.5475 94.2469 23.2876 94.8295 23.823C95.4121 24.3584 96.1286 24.6261 96.9789 24.6261C98.2072 24.6261 99.0811 24.0986 99.6008 23.0435H103.167C102.789 24.3033 102.065 25.3425 100.994 26.1614C99.9236 26.9645 98.6087 27.366 97.0498 27.366C95.7901 27.366 94.6563 27.0904 93.6485 26.5393C92.6565 25.9724 91.877 25.1772 91.3101 24.1537C90.759 23.1301 90.4834 21.9491 90.4834 20.6106C90.4834 19.2564 90.759 18.0675 91.3101 17.044C91.8612 16.0205 92.6328 15.2331 93.6249 14.682C94.6169 14.1309 95.7586 13.8553 97.0498 13.8553C98.2938 13.8553 99.4039 14.123 100.38 14.6584C101.372 15.1938 102.136 15.9575 102.671 16.9495C103.223 17.9258 103.498 19.0517 103.498 20.3272ZM100.073 19.3824C100.057 18.5321 99.7504 17.855 99.152 17.3511C98.5536 16.8314 97.8214 16.5716 96.9553 16.5716C96.1365 16.5716 95.4436 16.8236 94.8767 17.3274C94.3256 17.8156 93.9871 18.5006 93.8611 19.3824H100.073Z" fill="black"></path><path d="M78.632 15.9812C79.0572 15.3513 79.6398 14.8395 80.3799 14.4459C81.1358 14.0522 81.994 13.8554 82.9545 13.8554C84.0725 13.8554 85.0803 14.1309 85.9779 14.6821C86.8912 15.2332 87.6077 16.0205 88.1273 17.0441C88.6627 18.0519 88.9304 19.225 88.9304 20.5635C88.9304 21.902 88.6627 23.0908 88.1273 24.1301C87.6077 25.1537 86.8912 25.9489 85.9779 26.5158C85.0803 27.0826 84.0725 27.3661 82.9545 27.3661C81.9782 27.3661 81.12 27.1771 80.3799 26.7992C79.6556 26.4055 79.0729 25.9016 78.632 25.2875V27.1535H75.3252V9.67459H78.632V15.9812ZM85.5527 20.5635C85.5527 19.7761 85.3874 19.099 85.0567 18.5321C84.7418 17.9495 84.3166 17.5086 83.7812 17.2094C83.2616 16.9102 82.6947 16.7606 82.0806 16.7606C81.4822 16.7606 80.9153 16.9181 80.3799 17.233C79.8603 17.5322 79.4351 17.9731 79.1044 18.5558C78.7895 19.1384 78.632 19.8234 78.632 20.6107C78.632 21.3981 78.7895 22.083 79.1044 22.6657C79.4351 23.2483 79.8603 23.6971 80.3799 24.012C80.9153 24.3112 81.4822 24.4608 82.0806 24.4608C82.6947 24.4608 83.2616 24.3033 83.7812 23.9884C84.3166 23.6735 84.7418 23.2247 85.0567 22.642C85.3874 22.0594 85.5527 21.3666 85.5527 20.5635Z" fill="black"></path><path d="M72.0627 14.0679V27.1534H68.7323V25.5C68.3071 26.0669 67.7481 26.5157 67.0553 26.8464C66.3782 27.1613 65.6381 27.3188 64.835 27.3188C63.8114 27.3188 62.906 27.1062 62.1187 26.681C61.3313 26.2401 60.7093 25.6024 60.2527 24.7678C59.8118 23.9175 59.5913 22.9097 59.5913 21.7444V14.0679H62.8981V21.272C62.8981 22.3113 63.158 23.1144 63.6776 23.6813C64.1972 24.2324 64.9058 24.508 65.8034 24.508C66.7167 24.508 67.4332 24.2324 67.9528 23.6813C68.4725 23.1144 68.7323 22.3113 68.7323 21.272V14.0679H72.0627Z" fill="black"></path><path d="M54.4123 27.1535L48.4128 19.8076V27.1535H45.106V10.6666H48.4128V18.0597L54.4123 10.6666H58.4041L51.6015 18.8392L58.5931 27.1535H54.4123Z" fill="black"></path></svg>