<?xml version="1.0" encoding="UTF-8"?>
<svg width="650px" height="145px" viewBox="0 0 650 145" version="1.1" xmlns="http://www.w3.org/2000/svg" xmlns:xlink="http://www.w3.org/1999/xlink">
    <title>Mailmunch logo</title>
    <g id="Symbols" stroke="none" stroke-width="1" fill="none" fill-rule="evenodd">
        <g id="Mailmunch-logo">
            <g>
                <g id="Type" transform="translate(239.000000, 41.000000)" fill="#000000" fill-rule="nonzero">
                    <path d="M9.265,61.795 C9.88833333,61.795 10.3841667,61.5966667 10.7525,61.2 C11.1208333,60.8033333 11.305,60.3216667 11.305,59.755 L11.305,59.755 L11.305,36.04 C11.305,32.5266667 12.0841667,29.9625 13.6425,28.3475 C15.2008333,26.7325 17.085,25.925 19.295,25.925 C21.675,25.925 23.63,26.7325 25.16,28.3475 C26.69,29.9625 27.455,32.5266667 27.455,36.04 L27.455,36.04 L27.455,59.755 C27.455,60.3216667 27.6533333,60.8033333 28.05,61.2 C28.4466667,61.5966667 28.9283333,61.795 29.495,61.795 L29.495,61.795 L36.635,61.795 C37.2583333,61.795 37.7541667,61.5966667 38.1225,61.2 C38.4908333,60.8033333 38.675,60.3216667 38.675,59.755 L38.675,59.755 L38.675,36.04 C38.675,32.5266667 39.4541667,29.9625 41.0125,28.3475 C42.5708333,26.7325 44.455,25.925 46.665,25.925 C49.1016667,25.925 51.0708333,26.7183333 52.5725,28.305 C54.0741667,29.8916667 54.825,32.47 54.825,36.04 L54.825,36.04 L54.825,59.755 C54.825,60.3216667 55.0233333,60.8033333 55.42,61.2 C55.8166667,61.5966667 56.2983333,61.795 56.865,61.795 L56.865,61.795 L63.92,61.795 C64.5433333,61.795 65.0391667,61.5966667 65.4075,61.2 C65.7758333,60.8033333 65.96,60.3216667 65.96,59.755 L65.96,59.755 L65.96,35.36 C65.96,29.2966667 64.4866667,24.6783333 61.54,21.505 C58.5933333,18.3316667 54.7966667,16.745 50.15,16.745 C47.26,16.745 44.5683333,17.4391667 42.075,18.8275 C39.5816667,20.2158333 37.655,22.0433333 36.295,24.31 C33.8016667,19.2666667 29.41,16.745 23.12,16.745 C17.9633333,16.745 13.855,18.6716667 10.795,22.525 L10.795,22.525 L10.795,19.635 C10.795,19.0116667 10.6108333,18.5158333 10.2425,18.1475 C9.87416667,17.7791667 9.37833333,17.595 8.755,17.595 L8.755,17.595 L2.04,17.595 C1.47333333,17.595 0.991666667,17.7791667 0.595,18.1475 C0.198333333,18.5158333 -5.68434189e-14,19.0116667 -5.68434189e-14,19.635 L-5.68434189e-14,19.635 L-5.68434189e-14,59.755 C-5.68434189e-14,60.3216667 0.198333333,60.8033333 0.595,61.2 C0.991666667,61.5966667 1.47333333,61.795 2.04,61.795 L2.04,61.795 L9.265,61.795 Z M87.59,62.645 C90.99,62.645 93.8233333,62.0641667 96.09,60.9025 C98.3566667,59.7408333 100.113333,58.2533333 101.36,56.44 L101.36,56.44 L101.36,59.755 C101.36,60.3216667 101.558333,60.8033333 101.955,61.2 C102.351667,61.5966667 102.833333,61.795 103.4,61.795 L103.4,61.795 L110.455,61.795 C111.078333,61.795 111.574167,61.5966667 111.9425,61.2 C112.310833,60.8033333 112.495,60.3216667 112.495,59.755 L112.495,59.755 L112.495,33.065 C112.495,28.1916667 110.965,24.2533333 107.905,21.25 C104.845,18.2466667 99.9716667,16.745 93.285,16.745 C89.205,16.745 85.7766667,17.4108333 83,18.7425 C80.2233333,20.0741667 78.1691667,21.6325 76.8375,23.4175 C75.5058333,25.2025 74.8116667,26.8033333 74.755,28.22 C74.755,28.7866667 74.9391667,29.24 75.3075,29.58 C75.6758333,29.92 76.115,30.09 76.625,30.09 L76.625,30.09 L83.255,30.09 C83.8783333,30.09 84.3033333,29.75 84.53,29.07 L84.53,29.07 L85.9325,27.6675 C86.6408333,26.9591667 87.5616667,26.265 88.695,25.585 C89.8283333,24.905 91.33,24.565 93.2,24.565 C95.92,24.565 97.9033333,25.1883333 99.15,26.435 C100.396667,27.6816667 101.02,29.5233333 101.02,31.96 L101.02,31.96 L101.02,33.745 L89.375,35.445 C83.935,36.295 79.6566667,37.91 76.54,40.29 C73.4233333,42.67 71.865,45.7866667 71.865,49.64 C71.865,52.02 72.5591667,54.2016667 73.9475,56.185 C75.3358333,58.1683333 77.2341667,59.7408333 79.6425,60.9025 C82.0508333,62.0641667 84.7,62.645 87.59,62.645 Z M91.48,54.485 C89.3833333,54.485 87.5841667,53.9891667 86.0825,52.9975 C84.5808333,52.0058333 83.83,50.6033333 83.83,48.79 C83.83,45.4466667 87.0883333,43.265 93.605,42.245 L93.605,42.245 L102.105,40.885 L102.105,42.585 C102.105,46.4383333 101.113333,49.385 99.13,51.425 C97.1466667,53.465 94.5966667,54.485 91.48,54.485 Z M127.895,10.37 C128.461667,10.37 128.9575,10.1716667 129.3825,9.775 C129.8075,9.37833333 130.02,8.89666667 130.02,8.33 L130.02,8.33 L130.02,2.125 C130.02,1.50166667 129.821667,0.991666667 129.425,0.595 C129.028333,0.198333333 128.518333,6.11066753e-13 127.895,6.11066753e-13 L127.895,6.11066753e-13 L120.075,6.11066753e-13 C119.508333,6.11066753e-13 119.026667,0.198333333 118.63,0.595 C118.233333,0.991666667 118.035,1.50166667 118.035,2.125 L118.035,2.125 L118.035,8.33 C118.035,8.89666667 118.233333,9.37833333 118.63,9.775 C119.026667,10.1716667 119.508333,10.37 120.075,10.37 L120.075,10.37 L127.895,10.37 Z M127.64,61.795 C128.206667,61.795 128.688333,61.5966667 129.085,61.2 C129.481667,60.8033333 129.68,60.3216667 129.68,59.755 L129.68,59.755 L129.68,19.635 C129.68,19.0683333 129.481667,18.5866667 129.085,18.19 C128.688333,17.7933333 128.206667,17.595 127.64,17.595 L127.64,17.595 L120.415,17.595 C119.848333,17.595 119.366667,17.7791667 118.97,18.1475 C118.573333,18.5158333 118.375,19.0116667 118.375,19.635 L118.375,19.635 L118.375,59.755 C118.375,60.3216667 118.573333,60.8033333 118.97,61.2 C119.366667,61.5966667 119.848333,61.795 120.415,61.795 L120.415,61.795 L127.64,61.795 Z M144.165,61.795 C144.788333,61.795 145.284167,61.5966667 145.6525,61.2 C146.020833,60.8033333 146.205,60.3216667 146.205,59.755 L146.205,59.755 L146.205,3.485 C146.205,2.86166667 146.020833,2.36583333 145.6525,1.9975 C145.284167,1.62916667 144.788333,1.445 144.165,1.445 L144.165,1.445 L137.025,1.445 C136.458333,1.445 135.976667,1.62916667 135.58,1.9975 C135.183333,2.36583333 134.985,2.86166667 134.985,3.485 L134.985,3.485 L134.985,59.755 C134.985,60.3216667 135.183333,60.8033333 135.58,61.2 C135.976667,61.5966667 136.458333,61.795 137.025,61.795 L137.025,61.795 L144.165,61.795 Z M161.775,61.795 C162.398333,61.795 162.894167,61.5966667 163.2625,61.2 C163.630833,60.8033333 163.815,60.3216667 163.815,59.755 L163.815,59.755 L163.815,36.04 C163.815,32.5266667 164.594167,29.9625 166.1525,28.3475 C167.710833,26.7325 169.595,25.925 171.805,25.925 C174.185,25.925 176.14,26.7325 177.67,28.3475 C179.2,29.9625 179.965,32.5266667 179.965,36.04 L179.965,36.04 L179.965,59.755 C179.965,60.3216667 180.163333,60.8033333 180.56,61.2 C180.956667,61.5966667 181.438333,61.795 182.005,61.795 L182.005,61.795 L189.145,61.795 C189.768333,61.795 190.264167,61.5966667 190.6325,61.2 C191.000833,60.8033333 191.185,60.3216667 191.185,59.755 L191.185,59.755 L191.185,36.04 C191.185,32.5266667 191.964167,29.9625 193.5225,28.3475 C195.080833,26.7325 196.965,25.925 199.175,25.925 C201.611667,25.925 203.580833,26.7183333 205.0825,28.305 C206.584167,29.8916667 207.335,32.47 207.335,36.04 L207.335,36.04 L207.335,59.755 C207.335,60.3216667 207.533333,60.8033333 207.93,61.2 C208.326667,61.5966667 208.808333,61.795 209.375,61.795 L209.375,61.795 L216.43,61.795 C217.053333,61.795 217.549167,61.5966667 217.9175,61.2 C218.285833,60.8033333 218.47,60.3216667 218.47,59.755 L218.47,59.755 L218.47,35.36 C218.47,29.2966667 216.996667,24.6783333 214.05,21.505 C211.103333,18.3316667 207.306667,16.745 202.66,16.745 C199.77,16.745 197.078333,17.4391667 194.585,18.8275 C192.091667,20.2158333 190.165,22.0433333 188.805,24.31 C186.311667,19.2666667 181.92,16.745 175.63,16.745 C170.473333,16.745 166.365,18.6716667 163.305,22.525 L163.305,22.525 L163.305,19.635 C163.305,19.0116667 163.120833,18.5158333 162.7525,18.1475 C162.384167,17.7791667 161.888333,17.595 161.265,17.595 L161.265,17.595 L154.55,17.595 C153.983333,17.595 153.501667,17.7791667 153.105,18.1475 C152.708333,18.5158333 152.51,19.0116667 152.51,19.635 L152.51,19.635 L152.51,59.755 C152.51,60.3216667 152.708333,60.8033333 153.105,61.2 C153.501667,61.5966667 153.983333,61.795 154.55,61.795 L154.55,61.795 L161.775,61.795 Z M240.67,62.645 C246.96,62.645 251.663333,60.52 254.78,56.27 L254.78,56.27 L254.78,59.755 C254.78,60.3216667 254.978333,60.8033333 255.375,61.2 C255.771667,61.5966667 256.253333,61.795 256.82,61.795 L256.82,61.795 L263.875,61.795 C264.498333,61.795 264.994167,61.5966667 265.3625,61.2 C265.730833,60.8033333 265.915,60.3216667 265.915,59.755 L265.915,59.755 L265.915,19.635 C265.915,19.0116667 265.730833,18.5158333 265.3625,18.1475 C264.994167,17.7791667 264.498333,17.595 263.875,17.595 L263.875,17.595 L256.31,17.595 C255.743333,17.595 255.261667,17.7791667 254.865,18.1475 C254.468333,18.5158333 254.27,19.0116667 254.27,19.635 L254.27,19.635 L254.27,43.01 C254.27,46.24 253.405833,48.79 251.6775,50.66 C249.949167,52.53 247.611667,53.465 244.665,53.465 C238.601667,53.465 235.57,49.98 235.57,43.01 L235.57,43.01 L235.57,19.635 C235.57,19.0683333 235.371667,18.5866667 234.975,18.19 C234.578333,17.7933333 234.096667,17.595 233.53,17.595 L233.53,17.595 L225.88,17.595 C225.313333,17.595 224.831667,17.7791667 224.435,18.1475 C224.038333,18.5158333 223.84,19.0116667 223.84,19.635 L223.84,19.635 L223.84,43.52 C223.84,49.47 225.341667,54.145 228.345,57.545 C231.348333,60.945 235.456667,62.645 240.67,62.645 Z M281.74,61.795 C282.363333,61.795 282.859167,61.5966667 283.2275,61.2 C283.595833,60.8033333 283.78,60.3216667 283.78,59.755 L283.78,36.38 C283.78,33.15 284.658333,30.6 286.415,28.73 C288.171667,26.86 290.495,25.925 293.385,25.925 C296.388333,25.925 298.6975,26.8458333 300.3125,28.6875 C301.9275,30.5291667 302.735,33.0933333 302.735,36.38 L302.735,59.755 C302.735,60.3216667 302.933333,60.8033333 303.33,61.2 C303.726667,61.5966667 304.208333,61.795 304.775,61.795 L312.425,61.795 C313.048333,61.795 313.544167,61.5966667 313.9125,61.2 C314.280833,60.8033333 314.465,60.3216667 314.465,59.755 L314.465,35.87 C314.465,29.92 312.935,25.245 309.875,21.845 C306.815,18.445 302.678333,16.745 297.465,16.745 C291.458333,16.745 286.726667,18.87 283.27,23.12 L283.27,19.635 C283.27,19.0116667 283.085833,18.5158333 282.7175,18.1475 C282.349167,17.7791667 281.853333,17.595 281.23,17.595 L274.175,17.595 C273.608333,17.595 273.126667,17.7791667 272.73,18.1475 C272.333333,18.5158333 272.135,19.0116667 272.135,19.635 L272.135,59.755 C272.135,60.3216667 272.333333,60.8033333 272.73,61.2 C273.126667,61.5966667 273.608333,61.795 274.175,61.795 L281.74,61.795 Z M341.385,62.645 C345.975,62.645 349.8,61.8233333 352.86,60.18 C355.92,58.5366667 358.186667,56.5675 359.66,54.2725 C361.133333,51.9775 361.926667,49.8383333 362.04,47.855 C362.096667,47.2883333 361.9125,46.8066667 361.4875,46.41 C361.0625,46.0133333 360.566667,45.815 360,45.815 L360,45.815 L352.435,45.815 C351.811667,45.815 351.344167,45.9566667 351.0325,46.24 C350.720833,46.5233333 350.451667,46.9766667 350.225,47.6 C349.375,49.81 348.27,51.3825 346.91,52.3175 C345.55,53.2525 343.765,53.72 341.555,53.72 C335.661667,53.72 332.545,50.0366667 332.205,42.67 L332.205,42.67 L332.12,39.865 L332.205,36.72 C332.318333,32.98 333.1825,30.2033333 334.7975,28.39 C336.4125,26.5766667 338.665,25.67 341.555,25.67 C343.708333,25.67 345.479167,26.1516667 346.8675,27.115 C348.255833,28.0783333 349.375,29.6366667 350.225,31.79 C350.508333,32.47 350.791667,32.9375 351.075,33.1925 C351.358333,33.4475 351.811667,33.575 352.435,33.575 L352.435,33.575 L360,33.575 C360.566667,33.575 361.0625,33.3766667 361.4875,32.98 C361.9125,32.5833333 362.096667,32.1016667 362.04,31.535 C361.926667,29.4383333 361.119167,27.2425 359.6175,24.9475 C358.115833,22.6525 355.820833,20.7116667 352.7325,19.125 C349.644167,17.5383333 345.861667,16.745 341.385,16.745 C335.151667,16.745 330.179167,18.4733333 326.4675,21.93 C322.755833,25.3866667 320.786667,30.175 320.56,36.295 L320.56,36.295 L320.475,39.695 L320.56,43.095 C320.786667,49.215 322.755833,54.0033333 326.4675,57.46 C330.179167,60.9166667 335.151667,62.645 341.385,62.645 Z M377.74,61.795 C378.363333,61.795 378.859167,61.5966667 379.2275,61.2 C379.595833,60.8033333 379.78,60.3216667 379.78,59.755 L379.78,59.755 L379.78,36.38 C379.78,33.15 380.658333,30.6 382.415,28.73 C384.171667,26.86 386.495,25.925 389.385,25.925 C392.388333,25.925 394.6975,26.8458333 396.3125,28.6875 C397.9275,30.5291667 398.735,33.0933333 398.735,36.38 L398.735,36.38 L398.735,59.755 C398.735,60.3216667 398.933333,60.8033333 399.33,61.2 C399.726667,61.5966667 400.236667,61.795 400.86,61.795 L400.86,61.795 L408.595,61.795 C409.218333,61.795 409.714167,61.5966667 410.0825,61.2 C410.450833,60.8033333 410.635,60.3216667 410.635,59.755 L410.635,59.755 L410.635,35.87 C410.635,29.9766667 409.076667,25.3158333 405.96,21.8875 C402.843333,18.4591667 398.678333,16.745 393.465,16.745 C387.741667,16.745 383.18,18.785 379.78,22.865 L379.78,22.865 L379.78,3.485 C379.78,2.86166667 379.595833,2.36583333 379.2275,1.9975 C378.859167,1.62916667 378.363333,1.445 377.74,1.445 L377.74,1.445 L370.005,1.445 C369.438333,1.445 368.956667,1.62916667 368.56,1.9975 C368.163333,2.36583333 367.965,2.86166667 367.965,3.485 L367.965,3.485 L367.965,59.755 C367.965,60.3216667 368.163333,60.8033333 368.56,61.2 C368.956667,61.5966667 369.438333,61.795 370.005,61.795 L370.005,61.795 L377.74,61.795 Z" id="mailmunch"></path>
                </g>
                <g id="Mailmunch-Emblem" fill="#0157FF">
                    <g id="EMblem">
                        <path d="M104.474663,92.5287281 L143.629677,117.732454 L104.474663,144.534009 L104.474663,92.5287281 Z M102.812743,92.5216561 L102.812743,144.527379 L63.6577282,117.726266 L102.812743,92.5216561 Z M176.204638,0.0901680059 L207.287406,73.5717888 L187.07607,132.051045 L186.9501,62.5752701 L176.204638,0.0901680059 Z M185.309838,64.7799662 L185.388514,132.051045 L159.607536,99.0513225 L185.309838,64.7799662 Z M31.082768,0.0835380055 L20.3368633,62.5690821 L20.2113353,132.044415 L1.69819715e-13,73.5656008 L31.082768,0.0835380055 Z M21.9771254,64.7733362 L47.6798691,99.0446925 L21.8984494,132.044415 L21.9771254,64.7733362 Z M147.09982,35.9041044 L157.204824,99.4579625 L144.623735,116.394962 L105.001527,90.89156 L147.09982,35.9041044 Z M60.1871439,35.8979164 L102.285879,90.88493 L62.6636701,116.388332 L50.0821393,99.4513325 L60.1871439,35.8979164 Z M174.815873,0.0901680059 L185.17105,62.1730501 L158.597124,97.6294084 L148.493446,34.0848322 L174.815873,0.0901680059 Z M32.4710901,0.0835380055 L58.7939599,34.0782022 L48.6902812,97.6227784 L22.1159134,62.1664201 L32.4710901,0.0835380055 Z"></path>
                    </g>
                </g>
            </g>
        </g>
    </g>
</svg>